<?xml version="1.0" encoding="UTF-8" standalone="no"?>
<!-- Created with Inkscape (http://www.inkscape.org/) -->

<svg
   xmlns:dc="http://purl.org/dc/elements/1.1/"
   xmlns:cc="http://creativecommons.org/ns#"
   xmlns:rdf="http://www.w3.org/1999/02/22-rdf-syntax-ns#"
   xmlns:svg="http://www.w3.org/2000/svg"
   xmlns="http://www.w3.org/2000/svg"
   xmlns:sodipodi="http://sodipodi.sourceforge.net/DTD/sodipodi-0.dtd"
   xmlns:inkscape="http://www.inkscape.org/namespaces/inkscape"
   width="154.85701mm"
   height="19.062426mm"
   viewBox="0 0 548.70593 67.544028"
   id="svg2"
   version="1.1"
   inkscape:version="0.91 r13725"
   sodipodi:docname="invite.svg">
  <defs
     id="defs4" />
  <sodipodi:namedview
     id="base"
     pagecolor="#ffffff"
     bordercolor="#666666"
     borderopacity="1.0"
     inkscape:pageopacity="0.0"
     inkscape:pageshadow="2"
     inkscape:zoom="1.4"
     inkscape:cx="227.20113"
     inkscape:cy="-27.801455"
     inkscape:document-units="px"
     inkscape:current-layer="layer1"
     showgrid="false"
     showguides="true"
     inkscape:guide-bbox="true"
     inkscape:window-width="1846"
     inkscape:window-height="1178"
     inkscape:window-x="-8"
     inkscape:window-y="-8"
     inkscape:window-maximized="1"
     showborder="false"
     fit-margin-top="0"
     fit-margin-left="0"
     fit-margin-right="0"
     fit-margin-bottom="0">
    <sodipodi:guide
       position="-145.79406,215.15374"
       orientation="1,0"
       id="guide4142" />
    <sodipodi:guide
       position="235.36699,0.21283464"
       orientation="0,1"
       id="guide4137" />
  </sodipodi:namedview>
  <metadata
     id="metadata7">
    <rdf:RDF>
      <cc:Work
         rdf:about="">
        <dc:format>image/svg+xml</dc:format>
        <dc:type
           rdf:resource="http://purl.org/dc/dcmitype/StillImage" />
        <dc:title></dc:title>
      </cc:Work>
    </rdf:RDF>
  </metadata>
  <g
     inkscape:label="Layer 1"
     inkscape:groupmode="layer"
     id="layer1"
     transform="translate(-110.09714,-368.85449)">
    <path
       style="fill:none;fill-rule:evenodd;stroke:#aaaaaa;stroke-width:1.32390845;stroke-linecap:butt;stroke-linejoin:miter;stroke-miterlimit:4;stroke-dasharray:15.88690127, 15.88690127;stroke-dashoffset:0;stroke-opacity:1"
       d="m 163.40891,401.48365 c 0,0 71.28068,-30.22949 195.17457,-31.96708 87.08725,2.44982 177.24164,15.17513 261.46764,37.73805"
       id="path4140"
       inkscape:connector-curvature="0"
       sodipodi:nodetypes="ccc" />
    <g
       id="g4174"
       transform="matrix(1.3364566,0,0,1.2917649,103.41486,384.72792)">
      <g
         id="g4140">
        <path
           id="path4142"
           d="m 19,38 c 0,0 -1.938,-4 -7,-4 -5.062,0 -7,4 -7,4 l 0,2 14,0 0,-2 z"
           inkscape:connector-curvature="0"
           style="fill:#8bc34a" />
        <path
           id="path4144"
           d="m 43,38 c 0,0 -1.938,-4 -7,-4 -5.062,0 -7,4 -7,4 l 0,2 14,0 0,-2 z"
           inkscape:connector-curvature="0"
           style="fill:#8bc34a" />
      </g>
      <g
         id="g4146">
        <path
           id="path4148"
           d="m 16,12 c 0,2.209 -1.791,4 -4,4 -2.209,0 -4,-1.791 -4,-4 0,-2.209 1.791,-4 4,-4 2.209,0 4,1.791 4,4"
           inkscape:connector-curvature="0"
           style="fill:#ffa726" />
        <path
           id="path4150"
           d="m 40,12 c 0,2.209 -1.791,4 -4,4 -2.209,0 -4,-1.791 -4,-4 0,-2.209 1.791,-4 4,-4 2.209,0 4,1.791 4,4"
           inkscape:connector-curvature="0"
           style="fill:#ffa726" />
      </g>
      <g
         id="g4152">
        <path
           id="path4154"
           d="m 19,21 c 0,0 -1.938,-4 -7,-4 -5.062,0 -7,4 -7,4 l 0,2 14,0 0,-2 z"
           inkscape:connector-curvature="0"
           style="fill:#33691e" />
        <path
           id="path4156"
           d="m 43,21 c 0,0 -1.938,-4 -7,-4 -5.062,0 -7,4 -7,4 l 0,2 14,0 0,-2 z"
           inkscape:connector-curvature="0"
           style="fill:#33691e" />
      </g>
      <g
         id="g4158">
        <path
           id="path4160"
           d="m 16,29 c 0,2.209 -1.791,4 -4,4 -2.209,0 -4,-1.791 -4,-4 0,-2.209 1.791,-4 4,-4 2.209,0 4,1.791 4,4"
           inkscape:connector-curvature="0"
           style="fill:#ffb74d" />
        <path
           id="path4162"
           d="m 40,29 c 0,2.209 -1.791,4 -4,4 -2.209,0 -4,-1.791 -4,-4 0,-2.209 1.791,-4 4,-4 2.209,0 4,1.791 4,4"
           inkscape:connector-curvature="0"
           style="fill:#ffb74d" />
        <path
           id="path4164"
           d="m 28,21 c 0,2.209 -1.791,4 -4,4 -2.209,0 -4,-1.791 -4,-4 0,-2.209 1.791,-4 4,-4 2.209,0 4,1.791 4,4"
           inkscape:connector-curvature="0"
           style="fill:#ffb74d" />
      </g>
      <path
         id="path4166"
         d="m 31,30 c 0,0 -1.938,-4 -7,-4 -5.062,0 -7,4 -7,4 l 0,2 14,0 0,-2 z"
         inkscape:connector-curvature="0"
         style="fill:#689f38" />
    </g>
    <g
       id="g4486"
       transform="translate(616.80309,392.10192)">
      <circle
         id="circle4452"
         r="8"
         cy="12"
         cx="34"
         style="fill:#ffeb3b" />
      <g
         id="g4454">
        <rect
           id="rect4456"
           height="14"
           width="2"
           y="5"
           x="33"
           style="fill:#fffde7" />
        <rect
           id="rect4458"
           height="2"
           width="14"
           y="11"
           x="27"
           style="fill:#fffde7" />
        <rect
           id="rect4460"
           height="14"
           width="2"
           transform="matrix(0.7071,-0.7071,0.7071,0.7071,1.4733,27.5559)"
           y="5"
           x="33"
           style="fill:#fffde7" />
        <rect
           id="rect4462"
           height="14.001"
           width="2"
           transform="matrix(-0.7071,-0.7071,0.7071,-0.7071,49.5555,44.5266)"
           y="5"
           x="33"
           style="fill:#fffde7" />
      </g>
      <path
         id="path4464"
         d="m 34,5.5 c 3.585,0 6.5,2.915 6.5,6.5 0,3.584 -2.915,6.5 -6.5,6.5 -3.584,0 -6.5,-2.916 -6.5,-6.5 0,-3.585 2.916,-6.5 6.5,-6.5 M 34,4 c -4.419,0 -8,3.581 -8,8 0,4.419 3.581,8 8,8 4.419,0 8,-3.581 8,-8 0,-4.419 -3.581,-8 -8,-8 l 0,0 z"
         inkscape:connector-curvature="0"
         style="fill:#ffc107" />
      <path
         id="path4466"
         d="m 29.853,17 1.464,0 3.683,-5 -7.5,0 c 0,2.009 0.916,3.807 2.353,5 z"
         inkscape:connector-curvature="0"
         style="fill:#ffb300" />
      <g
         id="g4468">
        <rect
           id="rect4470"
           height="13.469"
           width="2"
           y="28.531"
           x="20"
           style="fill:#90caf9" />
        <path
           id="path4472"
           d="m 29,43 c 0,0 -6.999,-1 -7,-4 0,-3 -2.001,-3 -2,0 0,3 -7,4 -7,4 -0.553,0 -1,0.447 -1,1 l 0,0 18,0 0,0 c 0,-0.553 -0.447,-1 -1,-1 z"
           inkscape:connector-curvature="0"
           style="fill:#90caf9" />
        <path
           id="path4474"
           d="m 7,12 3.684,5 17.076,0 C 26.661,15.63 26,13.894 26,12 L 7,12 Z"
           inkscape:connector-curvature="0"
           style="fill:#90caf9" />
      </g>
      <path
         id="path4476"
         d="M 27.5,12 26,12 c 0,1.894 0.661,3.63 1.76,5 l 2.093,0 C 28.416,15.807 27.5,14.009 27.5,12 Z"
         inkscape:connector-curvature="0"
         style="fill:#fb8c00" />
      <path
         id="path4478"
         d="m 9.947,16 9.619,13.055 c 0,0 1.323,2.074 2.895,-0.037 C 24.031,26.906 32.053,16 32.053,16 L 9.947,16 Z"
         inkscape:connector-curvature="0"
         style="fill:#f50057" />
    </g>
  </g>
</svg>
